<?xml version="1.0" standalone="no"?>
<!DOCTYPE svg PUBLIC "-//W3C//DTD SVG 20010904//EN"
 "http://www.w3.org/TR/2001/REC-SVG-20010904/DTD/svg10.dtd">
<svg version="1.0" xmlns="http://www.w3.org/2000/svg"
 width="50.000000pt" height="45.000000pt" viewBox="0 0 1157.000000 1157.000000"
 preserveAspectRatio="xMidYMid meet">
<metadata>
Created by potrace 1.11, written by Peter Selinger 2001-2013
</metadata>
<g transform="translate(0.000000,1157.000000) scale(0.100000,-0.100000)"
fill="#ffffff" stroke="none">
<path d="M4665 10287 c-77 -106 -168 -221 -177 -225 -5 -2 -8 -8 -8 -13 0 -11
-153 -214 -181 -242 -11 -10 -19 -22 -19 -27 0 -5 -20 -32 -45 -60 -25 -28
-45 -55 -45 -60 0 -5 -19 -31 -42 -58 -24 -27 -73 -91 -111 -141 l-67 -92 2
-1802 3 -1802 23 -3 c12 -2 36 3 52 11 16 9 44 18 61 22 16 4 42 13 57 21 15
8 31 14 36 14 35 0 85 37 107 78 13 25 70 108 127 184 56 76 102 141 102 144
0 3 26 39 58 80 31 40 86 112 121 160 42 57 66 82 71 74 7 -12 15 -512 26
-1861 l6 -726 -27 -47 c-15 -25 -31 -46 -36 -46 -5 0 -9 -4 -9 -9 0 -9 -46
-87 -92 -159 -10 -15 -21 -33 -24 -40 -13 -27 -154 -238 -168 -252 -8 -9 -23
-34 -33 -55 -10 -22 -49 -87 -87 -145 -119 -183 -121 -185 -135 -217 -6 -13
-15 -23 -21 -23 -5 0 -10 -5 -10 -11 0 -9 -103 -176 -161 -261 -11 -15 -19
-32 -19 -38 0 -6 -6 -13 -12 -15 -10 -4 -12 -80 -10 -344 l3 -338 22 -11 c12
-6 47 -21 77 -32 30 -12 78 -33 105 -46 28 -13 54 -24 58 -24 7 0 46 -16 132
-55 54 -24 169 -72 205 -85 42 -16 111 -45 165 -71 40 -18 74 -19 970 -16
l930 2 68 33 c37 17 70 32 73 32 2 0 39 15 82 34 42 19 127 55 187 81 61 26
129 56 153 66 24 11 62 27 85 36 23 9 61 26 84 37 l42 21 7 948 c5 720 4 950
-5 961 -10 12 -25 10 -99 -16 -48 -16 -91 -33 -97 -37 -5 -4 -31 -13 -56 -20
-28 -8 -51 -22 -60 -36 -8 -13 -36 -47 -64 -77 -27 -30 -63 -72 -79 -93 -16
-22 -43 -54 -60 -71 -40 -40 -153 -165 -207 -229 -53 -63 -77 -82 -83 -63 -3
7 -7 441 -11 963 -3 523 -10 1065 -15 1205 -5 140 -10 263 -10 272 0 10 18 29
39 42 27 18 47 42 65 81 15 30 30 55 34 55 8 0 10 5 55 94 16 31 32 56 35 56
8 0 11 5 55 94 16 31 32 56 35 56 8 0 11 5 55 94 16 31 32 56 37 56 4 0 10 8
14 18 3 9 11 26 18 37 7 10 24 37 38 60 13 22 30 49 37 60 7 11 15 27 19 35 4
8 19 33 33 55 38 60 49 78 57 95 4 8 19 33 33 55 38 60 49 78 57 95 4 8 19 33
33 55 39 61 50 79 57 95 4 8 15 23 26 33 17 17 18 65 18 1199 l0 1180 -47 60
c-27 33 -69 85 -95 117 -26 31 -48 62 -48 69 0 6 -4 12 -8 12 -5 0 -44 48 -88
106 -104 140 -122 164 -166 216 -21 25 -38 50 -38 57 0 6 -3 11 -8 11 -4 0
-66 79 -137 175 l-130 176 -240 -6 c-338 -7 -1405 -8 -1412 -1 -4 3 -70 6
-147 5 l-141 0 -60 -82z m1545 -439 l0 -161 -202 6 c-112 4 -346 7 -520 7
l-318 0 0 155 0 155 520 0 520 0 0 -162z m-270 -4698 l0 -2130 -245 0 -245 0
0 2130 0 2130 245 0 245 0 0 -2130z"/>
</g>
</svg>
